<svg version="1.1" xmlns="http://www.w3.org/2000/svg" viewBox="0 0 841.0068951933878 764.7997024675632" width="1682.0137903867756" height="1529.5994049351264">
  <!-- svg-source:excalidraw -->
  
  <defs>
    <style class="style-fonts">
      @font-face {
        font-family: "Virgil";
        src: url("https://excalidraw.com/Virgil.woff2");
      }
      @font-face {
        font-family: "Cascadia";
        src: url("https://excalidraw.com/Cascadia.woff2");
      }
    </style>
    
  </defs>
  <g stroke-linecap="round"><g transform="translate(701.4933019555262 147.12787175026622) rotate(0 -280.98985435883225 264.40658837594606)" fill-rule="evenodd"><path d="M2.36 2.4 L-1.53 21.26 L-0.91 107.81 L-8.63 136.17 L-16.88 169.52 L-24.49 184.72 L-40.82 200.98 L-58.19 210.19 L-95.7 223.34 L-181.72 233.78 L-269.94 241.49 L-369.68 241.6 L-424.32 235.67 L-474.93 224.79 L-487.16 218.99 L-502.97 211.57 L-514.36 193.89 L-525.31 171.7 L-539.21 144.01 L-542.96 104.89 L-538.01 28.02 L-548.38 2.58 L-563.22 -15.84 L-590.3 -48.62 L-612.54 -52.7 L-626.53 -55.53 L-633.86 -48.75 L-647.83 -35.87 L-654.99 -20.23 L-672.34 102.86 L-687.57 220.11 L-691.17 302.51 L-683.67 386.86 L-680.71 424.1 L-675.36 453.04 L-660.77 488.48 L-641.64 512.14 L-626.02 530.56 L-595.94 543.32 L-565.45 559.05 L-529.32 574.73 L-438.48 587.91 L-336.4 603.6 L-232.69 601.07 L-181.23 602.3 L-82.49 587.41 L-40.3 575.28 L-1.2 567.68 L28.51 552.64 L56.66 533.49 L69.27 528.22 L87.05 498.74 L108.36 457.56 L114.27 417.11 L130.46 328.27 L130.83 237.88 L125.3 148.22 L101.42 -47.72 L99.93 -69.13 L96.55 -77.07 L85.28 -78.7 L70.6 -73.12 L58.86 -57.76 L0.98 -3.23" stroke="none" stroke-width="0" fill="#e9ecef" fill-rule="evenodd"></path><path d="M1.97 -1.71 C-7.68 33.48, 21.51 173.71, -59.95 210.28 C-141.41 246.85, -405.45 253.76, -486.78 217.72 C-568.12 181.68, -519.66 31.31, -547.99 -5.95 C-576.31 -43.22, -643.86 -95, -656.73 -5.89 C-669.59 83.21, -743.9 438.44, -625.2 528.65 C-506.5 618.86, -66.27 631.32, 55.48 535.36 C177.23 439.39, 114.23 41.77, 105.29 -47.16 C96.36 -136.08, 19.08 -5.63, 1.89 1.83 M-0.4 3.53 C-10.36 39.15, 18.33 178.17, -62.85 213.11 C-144.04 248.06, -406.95 249.47, -487.53 213.2 C-568.1 176.93, -518.72 31.72, -546.29 -4.51 C-573.85 -40.74, -640.35 -93.9, -652.92 -4.16 C-665.5 85.58, -740.02 443.19, -621.76 533.94 C-503.49 624.7, -64.16 637.18, 56.69 540.38 C177.55 443.57, 113 43.27, 103.38 -46.87 C93.76 -137.01, 16.78 -8.89, -1.03 -0.45" stroke="#1e1e1e" stroke-width="2" fill="none"></path></g></g><mask></mask><g stroke-linecap="round"><g transform="translate(164.98108847152784 187.98157619756444) rotate(0 266.08059256819797 79.70477997959914)" fill-rule="evenodd"><path d="M-1.97 -0.88 L-0.35 15.28 L-9.26 84.94 L-5.19 110.17 L-2.44 122.27 L-1.77 134.85 L7.04 147.09 L13.26 153.82 L23.3 164.44 L36.73 171.91 L78.33 181.74 L130.99 191.11 L189.36 197 L257.51 203.65 L323.03 201.51 L385.04 200.23 L415.2 199.07 L461.59 191.93 L479.05 184.11 L491.97 175.34 L506 167.05 L515.71 156.31 L523.67 141.91 L532.5 125.3 L534.96 109.52 L540.42 74.66 L542.53 37.72 L540.38 -7.12 L533.44 -34.29 L532.2 -39.25 L525.65 -43.69 L511.02 -39.78 L463.05 -17.25 L443.62 -7.67 L418.89 -4.4 L349.78 1.4 L268.1 3.55 L113.96 1.71 L71.04 -0.43 L5.33 -19.42 L-11.21 -19.47 L-10.07 -17.13 L-12.25 -12.02 L-0.25 1.37" stroke="none" stroke-width="0" fill="#a5d8ff" fill-rule="evenodd"></path><path d="M0.35 -0.02 C6.5 28.5, -41.93 140.37, 37.8 171.23 C117.52 202.09, 395.69 219.63, 478.71 185.12 C561.72 150.62, 545.99 -4.53, 535.87 -35.8 C525.75 -67.07, 488.25 -9.06, 417.96 -2.48 C347.68 4.09, 184.54 6.24, 114.14 3.64 C43.75 1.04, 14.71 -17.31, -4.39 -18.09 C-23.5 -18.87, -1.26 -4.11, -0.48 -1.04 M-0.92 -1.08 C5.53 27.09, -39.7 138.15, 40.1 169.43 C119.89 200.72, 395.08 220.68, 477.83 186.61 C560.59 152.54, 546.8 -3.02, 536.62 -34.99 C526.45 -66.96, 487.05 -11.52, 416.79 -5.22 C346.53 1.09, 185.18 5.16, 115.05 2.85 C44.93 0.53, 15.49 -18.93, -3.98 -19.11 C-23.45 -19.3, -2.22 -1.31, -1.76 1.73" stroke="#1e1e1e" stroke-width="2" fill="none"></path></g></g><mask></mask><g stroke-linecap="round"><g transform="translate(96.04701041919057 102.51218153743625) rotate(0 331.6070105918217 197.8894322380214)"><path d="M0.76 -0.27 C6.57 64.62, 13.38 330.24, 33.97 388.87 C54.56 447.5, 94.11 347.68, 124.33 351.51 C154.54 355.34, 187.69 409.8, 215.26 411.84 C242.83 413.89, 263.34 363.75, 289.74 363.78 C316.14 363.81, 347.26 412.52, 373.65 412.01 C400.03 411.5, 423.56 361.47, 448.05 360.72 C472.54 359.98, 500.19 409.13, 520.58 407.54 C540.96 405.96, 548.71 353.39, 570.37 351.24 C592.02 349.09, 635.07 456.28, 650.5 394.65 C665.93 333.02, 660.98 50.25, 662.96 -18.54 M-0.3 -1.46 C5.44 63.66, 12.43 331.25, 33.09 390.32 C53.75 449.4, 93.76 349.22, 123.65 352.97 C153.53 356.73, 184.39 410.93, 212.41 412.85 C240.42 414.76, 264.68 364.2, 291.74 364.45 C318.8 364.69, 348.57 415.13, 374.78 414.31 C400.99 413.49, 424.86 360.62, 449.02 359.51 C473.17 358.4, 499.21 409.27, 519.72 407.64 C540.22 406.01, 550.07 351.95, 572.04 349.75 C594.01 347.54, 636.31 455.75, 651.56 394.43 C666.8 333.12, 661.96 50.73, 663.51 -18.16" stroke="#1e1e1e" stroke-width="2" fill="none"></path></g></g><mask></mask><g stroke-linecap="round"><g transform="translate(305.95314520456407 258.8336511190889) rotate(0 114.82179674970789 25.558092743577703)"><path d="M0.94 -0.15 C-12.54 1.52, -83.11 0.84, -82.46 11.29 C-81.81 21.74, -46.4 56.81, 4.81 62.53 C56.03 68.24, 174.35 55.88, 224.82 45.56 C275.29 35.24, 303.99 10.31, 307.62 0.6 C311.25 -9.12, 300.17 -14.94, 246.59 -12.72 C193 -10.49, 11.66 5, -13.88 13.95 C-39.43 22.89, 52.79 38.53, 93.3 40.95 C133.82 43.36, 226.61 33.38, 229.24 28.45 C231.86 23.52, 129.06 13.84, 109.06 11.36 M-2 -2.7 C-15.48 -0.86, -85.43 2.52, -83.39 13.7 C-81.35 24.88, -41.12 58.6, 10.25 64.37 C61.61 70.15, 174.47 58.81, 224.81 48.36 C275.16 37.91, 308.09 12.17, 312.31 1.67 C316.53 -8.83, 304.37 -16.11, 250.13 -14.63 C195.88 -13.14, 13.15 1.26, -13.17 10.59 C-39.49 19.93, 52.4 38.71, 92.21 41.38 C132.02 44.05, 222.75 30.57, 225.67 26.61 C228.59 22.65, 129.19 19.44, 109.74 17.64" stroke="#1971c2" stroke-width="2" fill="none"></path></g></g><mask></mask><g stroke-linecap="round"><g transform="translate(329.75568122861455 168.69596747073803) rotate(0 -15.604758192194595 -3.5260045184198248)"><path d="M-2.41 2.64 C-7.75 1.41, -25.8 -8.34, -31.19 -9.69 M1.47 1.61 C-4.19 0.89, -27.58 -5.17, -32.68 -7.06" stroke="#1971c2" stroke-width="2" fill="none"></path></g></g><mask></mask><g stroke-linecap="round"><g transform="translate(297.194207647036 160.83711462187972) rotate(0 10.50283668103414 -73.59649495610304)"><path d="M-2.26 -2.17 C3.18 -5.94, 29.4 -13.66, 30.81 -21.08 C32.21 -28.51, 8.98 -37.28, 6.15 -46.7 C3.33 -56.11, 11.11 -70.61, 13.86 -77.59 C16.6 -84.56, 26.57 -81.76, 22.63 -88.53 C18.68 -95.3, -10.98 -108.36, -9.83 -118.21 C-8.68 -128.06, 23.03 -142.32, 29.54 -147.62 M1.71 2.83 C6.87 -1.86, 27.89 -17.18, 28.19 -24.98 C28.49 -32.77, 5.75 -35.46, 3.49 -43.93 C1.22 -52.41, 10.78 -68.49, 14.59 -75.83 C18.4 -83.18, 29.84 -81.72, 26.36 -88 C22.88 -94.27, -7 -103.15, -6.3 -113.49 C-5.6 -123.82, 25.13 -143.71, 30.55 -150.02" stroke="#1971c2" stroke-width="2" fill="none"></path></g></g><mask></mask><g stroke-linecap="round"><g transform="translate(391.24693045111417 168.00618068655467) rotate(0 -11.68766899714079 -73.03616709142942)"><path d="M-2.11 -1.98 C-6.86 -5.31, -33.11 -13.19, -30.62 -19.66 C-28.13 -26.12, 11.19 -33.01, 12.83 -40.78 C14.47 -48.56, -12.71 -59.69, -20.77 -66.31 C-28.83 -72.92, -39.14 -70.66, -35.53 -80.48 C-31.92 -90.31, -3.07 -114.88, 0.9 -125.26 C4.88 -135.64, -6.71 -138.88, -11.7 -142.78 C-16.68 -146.69, -26.24 -147.87, -29.01 -148.7 M1.94 3.12 C-2.83 -1.04, -33.56 -16.69, -31.93 -23.73 C-30.31 -30.77, 9.96 -31.2, 11.68 -39.12 C13.4 -47.04, -14.38 -64.6, -21.63 -71.26 C-28.89 -77.91, -35.97 -69.57, -31.85 -79.05 C-27.74 -88.53, -0.51 -118.23, 3.05 -128.14 C6.61 -138.05, -4.81 -135, -10.49 -138.5 C-16.17 -142.01, -27.53 -147.23, -31.02 -149.19" stroke="#1971c2" stroke-width="2" fill="none"></path></g></g><mask></mask><g stroke-linecap="round"><g transform="translate(492.0796088262256 157.9895332820459) rotate(0 -23.111854715685865 -72.93201799596318)"><path d="M-0.93 2.13 C-9.15 -1.69, -49.62 -15.39, -48.98 -23.75 C-48.33 -32.12, 1.01 -39.35, 2.95 -48.09 C4.89 -56.82, -32.65 -64.39, -37.34 -76.15 C-42.03 -87.9, -24.53 -108.69, -25.19 -118.6 C-25.84 -128.51, -44.49 -132.69, -41.26 -135.6 C-38.03 -138.51, -7.39 -134, -5.81 -136.07 C-4.22 -138.13, -27.26 -145.92, -31.76 -147.99 M3.76 0.81 C-4.66 -2.68, -49.59 -13.92, -49.98 -21.55 C-50.36 -29.17, -0.51 -36.37, 1.44 -44.96 C3.39 -53.54, -34.45 -61.06, -38.27 -73.07 C-42.1 -85.09, -21.49 -106.23, -21.52 -117.04 C-21.55 -127.86, -41.33 -134.43, -38.47 -137.97 C-35.61 -141.52, -5.01 -136.67, -4.37 -138.3 C-3.74 -139.92, -30.54 -145.61, -34.68 -147.71" stroke="#1971c2" stroke-width="2" fill="none"></path></g></g><mask></mask><g stroke-linecap="round"><g transform="translate(544.8571412365626 169.52724897988207) rotate(0 2.5373044446857307 -76.74174112504105)"><path d="M-2.65 2.76 C-6.11 1.22, -23.02 -0.54, -18.03 -7.56 C-13.05 -14.57, 27.79 -30.95, 27.26 -39.35 C26.73 -47.75, -18.02 -47.6, -21.22 -57.94 C-24.43 -68.29, 6.14 -89.05, 8.03 -101.44 C9.93 -113.84, -9.73 -123.56, -9.86 -132.31 C-9.99 -141.06, 4.98 -150.17, 7.24 -153.96 M1.11 1.8 C-2.75 0.37, -22.95 1.29, -18.96 -5.2 C-14.98 -11.7, 25.51 -28.84, 25.02 -37.19 C24.53 -45.54, -18.5 -44.52, -21.91 -55.29 C-25.32 -66.07, 3.37 -88.79, 4.57 -101.84 C5.77 -114.89, -15.52 -124.52, -14.71 -133.59 C-13.89 -142.66, 5.55 -152.6, 9.44 -156.25" stroke="#1971c2" stroke-width="2" fill="none"></path></g></g><mask></mask><g transform="translate(247.2921137076246 567.5755829556499) rotate(0 195.2334442138672 38.14102012482829)"><text x="0" y="0" font-family="Virgil, Segoe UI Emoji" font-size="61.02563219972525px" fill="#1e1e1e" text-anchor="start" style="white-space: pre;" direction="ltr" dominant-baseline="text-before-edge">The Pensieve</text></g></svg>